<svg width="113" height="79" viewBox="0 0 113 79" fill="none" xmlns="http://www.w3.org/2000/svg">
<g clip-path="url(#clip0_283_170)">
<path d="M84.8145 30.771V30.561C84.8145 28.841 86.5344 27.447 88.6564 27.447H101.96C105.006 27.447 107.476 29.449 107.476 31.92V35.223H87.1734L84.8145 30.771Z" fill="#00243D"/>
<path opacity="0.92" d="M10.1416 35.223H107.959C108.736 35.223 109.365 35.853 109.365 36.629C109.365 40.779 109.353 40.347 109.353 44.029V77.829H103.376V73.617L16.1326 73.267L16.1276 77.671L10.1416 77.83V35.223Z" fill="url(#paint0_linear_283_170)"/>
<path opacity="0.45" d="M16.1328 43.507H103.376C103.376 46.446 103.365 45.964 103.365 48.059V65.53H16.1328V43.507Z" fill="#00243D"/>
<path d="M88.6038 42.093C95.6978 34.804 92.4558 7.72999 87.4858 4.60199C83.9838 3.69999 69.4008 0.411986 60.5458 11.673C55.9548 9.61999 52.9328 10.573 50.8038 13.234L50.9348 13.578C45.4268 10.86 35.3268 7.17199 23.1948 8.72699C15.1628 29.057 25.9328 46.777 25.9328 46.777L25.9938 46.717C24.6938 48.259 24.8128 51.316 24.9248 52.277C33.6208 78.181 62.1188 75.281 62.1188 75.281C62.9788 75.255 70.8718 75.465 74.0788 74.241C74.0788 74.241 79.3228 76.985 81.6858 76.745C94.6258 70.521 88.8088 53.336 88.8088 53.336C95.3258 56.865 95.6918 49.836 88.6038 42.093Z" fill="url(#paint1_linear_283_170)"/>
<path d="M89.9906 64.308C88.6926 77.035 80.6256 77.445 80.6256 77.445C80.6256 77.445 75.0416 74.578 74.0756 73.935C60.2956 77.293 47.5856 73.313 47.5856 73.313C47.5856 73.313 41.0026 77.314 40.3486 77.314C38.3556 76.723 35.6846 71.111 35.6846 71.111L44.4026 62.732C44.4026 62.732 69.6026 82.062 89.9906 64.308Z" fill="url(#paint2_linear_283_170)"/>
<path d="M26.9038 44.956C25.5448 46.749 24.5188 48.899 24.4098 51.176C24.3848 51.672 24.4098 52.17 24.4828 52.662" stroke="#00243D" stroke-width="1.835" stroke-linecap="round" stroke-linejoin="round"/>
<path d="M44.3203 11.028C51.0473 13.294 55.1443 16.211 55.1443 16.211M60.4613 11.862C55.8703 9.809 52.8473 10.762 50.7193 13.422M44.8693 72.485C54.2343 76.155 69.3803 76.521 77.1873 72.329" stroke="#00243D" stroke-width="1.223" stroke-linecap="round" stroke-linejoin="round"/>
<path d="M52.2191 37.12C53.7688 37.12 55.0251 35.8637 55.0251 34.314C55.0251 32.7643 53.7688 31.508 52.2191 31.508C50.6694 31.508 49.4131 32.7643 49.4131 34.314C49.4131 35.8637 50.6694 37.12 52.2191 37.12Z" fill="#00243D"/>
<path d="M51.1365 36.067C50.9945 36.087 50.8535 36.028 50.7695 35.912L50.2495 35.19C50.1265 35.018 50.1655 34.78 50.3365 34.657C50.5075 34.534 50.7465 34.573 50.8695 34.744L51.3895 35.466C51.4665 35.574 51.4825 35.714 51.4315 35.836C51.3795 35.959 51.2685 36.046 51.1375 36.066L51.1365 36.067ZM53.6105 36.136C53.4405 36.161 53.2735 36.069 53.2045 35.911C53.1345 35.752 53.1805 35.567 53.3155 35.459L53.5505 35.273C53.7155 35.141 53.9555 35.169 54.0865 35.333C54.2175 35.499 54.1905 35.739 54.0265 35.87L53.7905 36.054C53.7395 36.096 53.6775 36.124 53.6105 36.136Z" fill="white"/>
<path d="M71.766 34.161C73.3157 34.161 74.572 32.9047 74.572 31.355C74.572 29.8053 73.3157 28.549 71.766 28.549C70.2162 28.549 68.96 29.8053 68.96 31.355C68.96 32.9047 70.2162 34.161 71.766 34.161Z" fill="#00243D"/>
<path d="M70.6835 33.107C70.5415 33.128 70.4005 33.068 70.3165 32.952L69.7965 32.23C69.7165 32.119 69.7025 31.974 69.7585 31.85C69.8145 31.726 69.9325 31.64 70.0685 31.627C70.2035 31.613 70.3365 31.673 70.4155 31.784L70.9355 32.507C70.9955 32.589 71.0195 32.691 71.0025 32.791C70.9865 32.891 70.9315 32.981 70.8485 33.039C70.7995 33.075 70.7435 33.098 70.6835 33.107ZM73.1565 33.176C72.9875 33.199 72.8235 33.107 72.7555 32.951C72.6865 32.794 72.7305 32.611 72.8625 32.503L73.0975 32.32C73.2035 32.231 73.3495 32.207 73.4785 32.257C73.6085 32.307 73.6995 32.423 73.7185 32.56C73.7385 32.697 73.6815 32.833 73.5715 32.917L73.3375 33.1C73.2845 33.14 73.2215 33.167 73.1565 33.176Z" fill="white"/>
<path d="M23.7607 9.366C25.6527 10.948 28.6127 15.006 29.9437 20.644M73.2177 73.914L80.8257 77.314" stroke="#00243D" stroke-width="1.223" stroke-linecap="round" stroke-linejoin="round"/>
<path d="M67.8708 37.114C66.7468 41.989 60.8808 41.694 59.1328 38.283" stroke="#00243D" stroke-width="1.037" stroke-linecap="round" stroke-linejoin="round"/>
<path fill-rule="evenodd" clip-rule="evenodd" d="M12.3984 2.229H29.8764V27.216H12.3984V2.229Z" stroke="#00243D" stroke-width="1.223" stroke-linecap="round" stroke-linejoin="round"/>
<path d="M8.18882 73.534C8.00582 75.354 9.10682 77.004 10.6528 77.223C12.1998 77.44 13.6028 76.141 13.7868 74.322M34.0858 73.534C34.2698 75.354 33.1688 77.004 31.6218 77.223C30.0738 77.44 28.6728 76.141 28.4888 74.322" fill="#AA3431"/>
<path d="M32.6038 1.67699C32.6038 1.04599 31.9308 0.528992 31.1018 0.528992H11.2458C10.4188 0.528992 9.74578 1.04599 9.74578 1.67699V1.90899C9.69978 2.01899 9.67578 2.13599 9.67578 2.25499V6.57299C9.67578 7.20399 10.3508 7.72099 11.1768 7.72099H13.1008C13.9268 7.72099 14.6028 7.20399 14.6028 6.57299V5.05999C14.6028 4.55299 15.0128 4.14199 15.5198 4.14199H26.7598C27.2668 4.14199 27.6778 4.55199 27.6778 5.05999V6.57199C27.6778 7.20299 28.3508 7.71999 29.1798 7.71999H31.1028C31.9288 7.71999 32.6048 7.20299 32.6048 6.57199V2.25499C32.6048 2.23499 32.6048 2.21699 32.6008 2.19499C32.5978 2.17199 32.6048 2.15499 32.6048 2.13599V1.67599L32.6038 1.67699Z" fill="url(#paint3_linear_283_170)"/>
<path d="M16.0439 23.678C16.0439 22.22 17.2259 21.038 18.6839 21.038H23.5949C25.0529 21.038 26.2349 22.22 26.2349 23.678" stroke="#00243D" stroke-width="1.223" stroke-linecap="round" stroke-linejoin="round"/>
<path d="M34.2312 23.59H8.04421C6.05121 23.59 4.42221 25.18 4.37421 27.172L3.32921 70.751C3.30521 71.739 3.68121 72.695 4.37221 73.403C5.06221 74.11 6.00921 74.508 6.99821 74.508H35.2792C36.2682 74.508 37.2152 74.11 37.9062 73.403C38.5962 72.695 38.9722 71.739 38.9492 70.751L37.9002 27.172C37.8522 25.18 36.2232 23.59 34.2302 23.591L34.2312 23.59Z" fill="url(#paint4_linear_283_170)"/>
<path d="M30.1008 38.964H12.1758C10.8138 38.965 9.70082 40.053 9.66882 41.414L8.95082 63.903C8.93582 64.578 9.19282 65.231 9.66482 65.715C10.1368 66.198 10.7828 66.471 11.4588 66.472H30.8148C31.4898 66.471 32.1368 66.198 32.6088 65.715C33.0798 65.231 33.3378 64.578 33.3218 63.903L32.6058 41.416C32.5728 40.054 31.4618 38.967 30.0998 38.966L30.1008 38.964Z" fill="#F28579"/>
<path opacity="0.45" d="M7.81221 68.261C6.52721 66.977 4.88221 66.366 3.43221 66.481L3.32921 70.751C3.30521 71.739 3.68121 72.695 4.37221 73.403C5.06221 74.11 6.01021 74.509 6.99821 74.508H8.92621C10.1422 72.83 9.70221 70.152 7.81221 68.261ZM34.4642 68.261C35.7482 66.977 37.3942 66.366 38.8442 66.481L38.9472 70.751C38.9702 71.739 38.5942 72.695 37.9032 73.403C37.2132 74.11 36.2662 74.509 35.2772 74.508H33.3512C32.1342 72.83 32.5742 70.152 34.4642 68.261Z" fill="#AA3431"/>
<path opacity="0.92" d="M21.1373 35.276C22.946 35.276 24.4123 34.3824 24.4123 33.28C24.4123 32.1776 22.946 31.284 21.1373 31.284C19.3286 31.284 17.8623 32.1776 17.8623 33.28C17.8623 34.3824 19.3286 35.276 21.1373 35.276Z" fill="url(#paint5_linear_283_170)"/>
<path d="M13.9121 44.4H28.3621" stroke="#00243D" stroke-width="1.223" stroke-linecap="round" stroke-linejoin="round"/>
<path fill-rule="evenodd" clip-rule="evenodd" d="M14.5247 44.778L14.2247 46.324C14.1957 46.469 14.2007 46.618 14.2387 46.761C14.2787 46.907 14.3607 47.054 14.5247 47.054C14.6887 47.054 14.7697 46.9 14.8047 46.748C14.8387 46.601 14.8417 46.448 14.8117 46.299L14.5247 44.778Z" stroke="url(#paint6_linear_283_170)" stroke-width="1.223" stroke-linejoin="round"/>
<path d="M92.4154 77.646H1.02637M111.666 77.646H97.0274" stroke="#00243D" stroke-width="1.223" stroke-linecap="round"/>
</g>
<defs>
<linearGradient id="paint0_linear_283_170" x1="4971.29" y1="4295.92" x2="4971.29" y2="35.223" gradientUnits="userSpaceOnUse">
<stop offset="0.04" stop-color="#173B4F"/>
<stop offset="1" stop-color="#345869"/>
</linearGradient>
<linearGradient id="paint1_linear_283_170" x1="1525.42" y1="4915.45" x2="7549.16" y2="1437.73" gradientUnits="userSpaceOnUse">
<stop stop-color="#E0973B"/>
<stop offset="0.43" stop-color="#FFE3B3"/>
<stop offset="0.96" stop-color="#F3E49E"/>
<stop offset="1" stop-color="#F2E49C"/>
</linearGradient>
<linearGradient id="paint2_linear_283_170" x1="670.848" y1="887.837" x2="4032.14" y2="-1052.74" gradientUnits="userSpaceOnUse">
<stop offset="0.17" stop-color="#E0973B"/>
<stop offset="0.74" stop-color="#FFE7BD"/>
<stop offset="0.92" stop-color="#F7E5A8"/>
<stop offset="1" stop-color="#F2E49C"/>
</linearGradient>
<linearGradient id="paint3_linear_283_170" x1="9.49235" y1="360.129" x2="2302.58" y2="360.129" gradientUnits="userSpaceOnUse">
<stop stop-color="#345869"/>
<stop offset="0.96" stop-color="#173B4F"/>
</linearGradient>
<linearGradient id="paint4_linear_283_170" x1="3.43499" y1="2569.44" x2="3565.43" y2="2569.44" gradientUnits="userSpaceOnUse">
<stop stop-color="#DE4F38"/>
<stop offset="1" stop-color="#F26F59"/>
</linearGradient>
<linearGradient id="paint5_linear_283_170" x1="17.9213" y1="230.884" x2="672.862" y2="230.884" gradientUnits="userSpaceOnUse">
<stop offset="0.04" stop-color="#173B4F"/>
<stop offset="1" stop-color="#345869"/>
</linearGradient>
<linearGradient id="paint6_linear_283_170" x1="-46.9448" y1="158.578" x2="137.975" y2="158.578" gradientUnits="userSpaceOnUse">
<stop offset="0.04" stop-color="#173B4F"/>
<stop offset="1" stop-color="#345869"/>
</linearGradient>
<clipPath id="clip0_283_170">
<rect width="113" height="79" fill="white"/>
</clipPath>
</defs>
</svg>
