<svg width="118" height="80" viewBox="0 0 118 80" fill="none" xmlns="http://www.w3.org/2000/svg">
<g clip-path="url(#clip0_283_143)">
<path opacity="0.85" d="M111.039 78.917H70.2191V2.92699H111.039L111.039 78.917Z" fill="url(#paint0_linear_283_143)"/>
<path d="M100.547 45.918H101.219C102.192 45.918 102.979 45.13 102.979 44.158V39.756C102.979 38.784 102.192 37.996 101.219 37.996H100.547C99.5755 37.996 98.7875 38.784 98.7875 39.756V44.158C98.7875 45.13 99.5755 45.918 100.547 45.918Z" fill="#00243D"/>
<path d="M102.058 54.175V49.374C102.058 48.9979 101.753 48.693 101.377 48.693H100.391C100.015 48.693 99.7096 48.9979 99.7096 49.374V54.175C99.7096 54.5511 100.015 54.856 100.391 54.856H101.377C101.753 54.856 102.058 54.5511 102.058 54.175Z" fill="#00243D"/>
<path d="M95.8008 65.964L105.629 71.537L108.286 70.613C108.709 70.465 108.958 70.027 108.866 69.588L108.296 66.834L106.98 66.087L106.477 64.466L104.809 64.857L104.287 63.117L102.617 63.613L101.14 62.775L98.3508 61.194" fill="url(#paint1_linear_283_143)"/>
<path d="M97.937 58.54C97.067 56.041 94.778 54.311 92.137 54.158C89.495 54.005 87.021 55.458 85.868 57.84C84.716 60.222 85.111 63.064 86.871 65.04C88.631 67.016 91.407 67.738 93.907 66.869C97.319 65.682 99.124 61.953 97.937 58.54ZM91.287 61.76C90.275 62.113 89.169 61.578 88.817 60.565C88.465 59.553 89 58.447 90.012 58.095C91.025 57.743 92.131 58.278 92.482 59.29C92.652 59.776 92.621 60.31 92.397 60.773C92.173 61.236 91.774 61.592 91.287 61.761V61.76Z" fill="url(#paint2_linear_283_143)"/>
<path d="M76.0967 47.814C82.3197 48.217 91.6267 54.214 91.6267 54.214" stroke="#00243D" stroke-width="1.305" stroke-linecap="round" stroke-linejoin="round"/>
<path d="M105.97 68.598L99.8057 65.102L105.97 68.598Z" fill="#FFDCA4"/>
<path d="M105.97 68.598L99.8057 65.102" stroke="#00243D" stroke-width="1.305" stroke-linecap="round" stroke-linejoin="round"/>
<path d="M92.3552 54.173C91.7862 54.12 91.2132 54.141 90.6502 54.238C90.6502 54.238 90.4832 54.264 90.3702 54.293C90.1242 54.358 91.3062 54.903 91.7582 54.902C92.1962 54.903 92.3552 54.173 92.3552 54.173Z" fill="url(#paint3_linear_283_143)"/>
<path d="M73.0014 41.28C80.5674 33.503 77.1124 4.614 71.8083 1.279C68.0723 0.316996 52.5114 -3.191 43.0634 8.824C38.1633 6.634 34.9384 7.65 32.6674 10.49L32.8074 10.857C26.9304 7.954 16.1534 4.018 3.21035 5.677C-5.36265 27.37 6.12935 46.28 6.12935 46.28L6.19435 46.215C4.97535 47.66 0.74835 52.31 2.78235 55.925C3.36035 56.965 4.37035 57.695 5.53835 57.919C6.60435 58.114 7.96435 57.449 8.13135 57.384C19.3363 79.014 44.7393 76.694 44.7393 76.694C45.6563 76.664 54.0793 76.889 57.5014 75.584C57.5014 75.584 63.0973 78.511 65.6173 78.254C79.4253 71.612 73.2174 53.275 73.2174 53.275C80.1734 57.042 82.5203 50.017 73.0014 41.28Z" fill="url(#paint4_linear_283_143)"/>
<path d="M74.4801 64.984C73.0961 78.563 64.4881 79.001 64.4881 79.001C64.4881 79.001 58.5301 75.942 57.5001 75.256C42.7961 78.841 29.2341 74.593 29.2341 74.593C29.2341 74.593 20.3191 78.863 19.6211 78.863C6.57307 75.84 8.13007 57.382 8.13007 57.382L25.8401 63.3C25.8401 63.3 52.7251 83.927 74.4801 64.984Z" fill="url(#paint5_linear_283_143)"/>
<path d="M42.9719 9.02301C38.0729 6.83201 34.8479 7.84801 32.5769 10.688M26.3359 73.709C36.3279 77.624 52.4889 78.016 60.8199 73.543" stroke="#00243D" stroke-width="1.305" stroke-linecap="round" stroke-linejoin="round"/>
<path d="M50.6297 38.18C49.4297 43.382 43.1717 43.068 41.3057 39.427" stroke="#00243D" stroke-width="1.107" stroke-linecap="round" stroke-linejoin="round"/>
<path d="M56.583 75.235L64.702 78.862M73.701 53.524C73.701 53.524 75.177 54.302 76.638 54.303C79.313 54.303 80.182 51.693 79.524 50.28" stroke="#00243D" stroke-width="1.305" stroke-linecap="round" stroke-linejoin="round"/>
<path d="M33.8818 34.59L36.1308 31.471L38.8788 33.99M53.5968 33.247L52.9648 28.897M55.4088 30.665L51.0488 31.218" stroke="#00243D" stroke-width="1.305" stroke-linecap="round"/>
<path d="M18.1301 74.379C18.1581 74.379 18.1801 74.356 18.1801 74.329C18.1801 74.301 18.1581 74.279 18.1301 74.279C18.1031 74.279 18.0801 74.301 18.0801 74.329C18.0801 74.356 18.1031 74.379 18.1301 74.379Z" fill="#00243D"/>
<path d="M3.60752 7.16899C3.26352 8.16499 3.13452 9.22299 3.22952 10.272C3.33152 11.352 3.78952 12.356 3.73052 13.449C3.67052 14.563 3.48452 15.668 3.42352 16.784C3.36352 17.901 3.35552 19.015 3.39352 20.131C3.54552 24.619 4.43052 29.056 5.61152 33.378C6.21452 35.586 6.89552 37.771 7.60652 39.945C7.78052 40.482 7.95752 41.018 8.13752 41.554C8.30752 42.064 8.52452 42.58 8.61452 43.112C8.76252 43.992 8.16752 44.723 7.68452 45.396C6.10752 47.604 4.26852 49.86 3.64952 52.566C3.34752 53.888 3.42352 55.299 4.17152 56.465C4.44652 56.891 4.81652 57.398 5.27552 57.639C5.79752 57.915 6.40252 57.966 6.97152 57.854C7.43652 57.764 7.87152 57.551 8.26652 57.295C8.68752 57.022 8.29652 56.344 7.87152 56.619C7.27352 57.007 6.56652 57.272 5.86052 57.043C5.51452 56.931 5.23052 56.608 4.97552 56.26C4.21052 55.216 4.12252 53.927 4.41752 52.698C5.04052 50.104 6.81952 47.934 8.33952 45.814C8.79652 45.172 9.31052 44.496 9.40352 43.691C9.46152 43.19 9.33852 42.695 9.18152 42.221C9.01452 41.708 8.84152 41.199 8.67152 40.687C7.97852 38.599 7.30752 36.497 6.70152 34.379C5.50252 30.19 4.54252 25.906 4.24652 21.551C4.09352 19.403 4.12252 17.247 4.33552 15.105C4.44652 14.018 4.62552 12.979 4.35752 11.9C4.10452 10.88 3.90452 9.92399 4.01652 8.86599C4.07452 8.35599 4.19052 7.85599 4.36052 7.37299C4.52352 6.89499 3.76752 6.68999 3.60552 7.16499L3.60752 7.16899Z" fill="url(#paint6_linear_283_143)"/>
<path d="M19.9535 78.427C15.9135 76.005 14.0155 71.322 13.9545 66.761C13.9445 66.048 13.9745 65.335 14.0405 64.624C14.1005 63.972 14.2765 63.274 14.0175 62.645C13.8295 62.188 13.0715 62.384 13.2625 62.853C13.4965 63.422 13.3045 64.093 13.2525 64.68C13.1925 65.333 13.1655 65.985 13.1705 66.638C13.1765 67.94 13.3235 69.237 13.6085 70.507C14.1305 72.783 15.1655 74.937 16.7015 76.701C17.5215 77.645 18.4865 78.454 19.5585 79.098C19.9915 79.359 20.3855 78.681 19.9535 78.422V78.427ZM13.5145 60.635L12.9495 58.561C12.8195 58.076 12.0605 58.282 12.1945 58.769L12.7595 60.843C12.8895 61.329 13.6475 61.123 13.5145 60.635Z" fill="#BF7626"/>
<path d="M3.81055 6.35999C5.83055 8.04699 8.98855 12.376 10.4085 18.393M76.4806 44.817C76.4806 44.817 78.7905 47.377 79.2415 49.358C79.3315 49.763 79.2375 50.186 78.9855 50.515C78.7345 50.845 78.3505 51.046 77.9365 51.066L77.2736 51.101M76.9325 49.835C76.5865 52.819 86.5095 65.422 91.1285 58.131" stroke="#00243D" stroke-width="1.305" stroke-linecap="round" stroke-linejoin="round"/>
<path d="M29.8525 78.944H116.806M9.31152 78.95H24.9315" stroke="#00243D" stroke-width="1.305" stroke-linecap="round"/>
<path d="M36.9999 13.435C38.3999 11.398 41.1149 11.011 43.3189 11.811C43.5329 11.889 43.7289 11.721 43.8009 11.538C45.1909 8.00301 48.2209 5.38201 51.5799 3.76301C53.5219 2.82801 55.6249 2.21901 57.7329 1.78301C60.0259 1.31701 62.3579 1.07001 64.6989 1.04801C67.0249 1.01801 69.3489 1.17801 71.5649 1.94201C72.0419 2.10701 72.2469 1.35101 71.7729 1.18701C69.7699 0.495011 67.6559 0.279011 65.5499 0.262011C63.1199 0.238011 60.6899 0.444011 58.2999 0.877011C54.1269 1.64101 49.9929 3.13201 46.7979 6.00301C45.1609 7.47501 43.8509 9.27801 43.0439 11.33L43.5259 11.057C40.9699 10.129 37.9139 10.721 36.3219 13.041C36.0359 13.457 36.7139 13.848 36.9979 13.432L36.9999 13.435Z" fill="url(#paint7_linear_283_143)"/>
<path d="M25.749 8.13199C32.927 10.55 37.299 13.663 37.299 13.663" stroke="#00243D" stroke-width="1.305" stroke-linecap="round" stroke-linejoin="round"/>
<path d="M90.8357 57.413C90.5387 57.611 90.2627 57.839 90.0137 58.095C91.0257 57.743 92.1317 58.278 92.4837 59.29C92.4837 59.29 92.5797 59.718 92.5927 59.872C92.6317 60.376 94.0347 59.82 94.2477 58.697C94.5907 56.891 93.7007 55.62 90.8357 57.413Z" fill="url(#paint8_linear_283_143)"/>
</g>
<defs>
<linearGradient id="paint0_linear_283_143" x1="-2551.94" y1="-7453.97" x2="992.246" y2="-1315.22" gradientUnits="userSpaceOnUse">
<stop stop-color="#062E44"/>
<stop offset="0.04" stop-color="#163E4F"/>
<stop offset="0.96" stop-color="#00243D"/>
</linearGradient>
<linearGradient id="paint1_linear_283_143" x1="95.8008" y1="578.406" x2="1404.23" y2="578.406" gradientUnits="userSpaceOnUse">
<stop stop-color="#F0CF9E"/>
<stop offset="0.96" stop-color="#FFBF5F"/>
</linearGradient>
<linearGradient id="paint2_linear_283_143" x1="276.729" y1="245.753" x2="1202.13" y2="1171.17" gradientUnits="userSpaceOnUse">
<stop stop-color="#F0CF9E"/>
<stop offset="0.96" stop-color="#FFBF5F"/>
</linearGradient>
<linearGradient id="paint3_linear_283_143" x1="143.623" y1="81.5845" x2="205.674" y2="143.611" gradientUnits="userSpaceOnUse">
<stop stop-color="#F0CF9E"/>
<stop offset="0.9" stop-color="#F3CC92"/>
</linearGradient>
<linearGradient id="paint4_linear_283_143" x1="462.314" y1="5858.2" x2="7995.3" y2="1509.05" gradientUnits="userSpaceOnUse">
<stop offset="0.07" stop-color="#E0973B"/>
<stop offset="0.55" stop-color="#FFE3B3"/>
<stop offset="0.97" stop-color="#F3E49E"/>
<stop offset="1" stop-color="#F2E49C"/>
</linearGradient>
<linearGradient id="paint5_linear_283_143" x1="775.016" y1="1268.31" x2="4716.11" y2="-1006.94" gradientUnits="userSpaceOnUse">
<stop offset="0.12" stop-color="#E0973B"/>
<stop offset="0.84" stop-color="#FFE7BD"/>
<stop offset="0.95" stop-color="#F7E5A8"/>
<stop offset="1" stop-color="#F2E49C"/>
</linearGradient>
<linearGradient id="paint6_linear_283_143" x1="38.9145" y1="2557.96" x2="589.761" y2="2557.96" gradientUnits="userSpaceOnUse">
<stop stop-color="#D1923F"/>
<stop offset="0.96" stop-color="#C77C1C"/>
</linearGradient>
<linearGradient id="paint7_linear_283_143" x1="74.225" y1="667.816" x2="3578.75" y2="667.816" gradientUnits="userSpaceOnUse">
<stop offset="0.08" stop-color="#EDC291" stop-opacity="0.8"/>
<stop offset="1" stop-color="#ECDB8A"/>
</linearGradient>
<linearGradient id="paint8_linear_283_143" x1="89.9491" y1="232.115" x2="520.348" y2="232.115" gradientUnits="userSpaceOnUse">
<stop stop-color="#F0CF9E"/>
<stop offset="0.96" stop-color="#F9C67A"/>
</linearGradient>
<clipPath id="clip0_283_143">
<rect width="118" height="80" fill="white"/>
</clipPath>
</defs>
</svg>
