<svg width="22" height="18" viewBox="0 0 22 18" fill="none" xmlns="http://www.w3.org/2000/svg">
<path d="M11.001 0C4.9898 0 0 3.80373 0 8.58113C0 10.5889 0.882262 12.4249 2.35036 13.8789C4.80973 14.5272 7.94526 14.8731 11.0884 14.8749C14.1209 14.8766 17.1494 14.5586 19.5748 13.953C21.0879 12.4875 22 10.6232 22 8.58109C22 3.80373 17.012 0 11.0009 0H11.001ZM11.1031 0.673733C15.8147 0.673733 19.624 3.01839 19.624 5.91987C19.624 8.82134 15.8147 11.1671 11.1031 11.1671C6.39126 11.1671 2.58388 8.82134 2.58388 5.91987C2.58388 3.01839 6.39126 0.673733 11.1031 0.673733ZM11.0829 1.37668L10.8075 1.47434L8.36054 2.34685L9.64238 3.70438C9.30103 3.7904 8.98419 3.90524 8.69961 4.04466L7.4159 2.68372L5.0108 3.54046L4.73731 3.63819L4.73906 3.83241L4.74822 5.58526H7.27014C7.2454 5.69439 7.2318 5.80553 7.2318 5.91879C7.2318 6.03363 7.24476 6.14624 7.27008 6.25677H4.75196L4.76106 7.98713V8.18027L5.03099 8.27692L7.43434 9.1393L8.70346 7.79399C8.98798 7.93305 9.30506 8.04742 9.64618 8.13319L8.37693 9.47714L10.8495 10.3654L11.1231 10.4642L11.3966 10.3665L13.8456 9.49403L12.5618 8.13416C12.903 8.04857 13.2199 7.93395 13.5045 7.79503L14.79 9.15712L17.1952 8.30032L17.4669 8.20258V8.00836L17.4578 6.25666H14.9378C14.9631 6.14613 14.9779 6.03352 14.9779 5.91868C14.9779 5.80542 14.9643 5.69425 14.9396 5.58523H17.4541L17.445 3.85257V3.66054L17.1751 3.56396L14.7737 2.70158L13.5063 4.04344C13.2221 3.90452 12.9062 3.79012 12.5655 3.70434L13.8311 2.36245L11.3566 1.4742L11.0831 1.37653L11.0829 1.37668ZM6.05195 11.3928C7.12356 11.3928 7.98668 11.9261 7.98668 12.5966C7.98668 13.2671 7.12356 13.8014 6.05201 13.8014C4.98046 13.8014 4.11915 13.2671 4.11915 12.5966C4.11915 11.9261 4.98052 11.3928 6.05207 11.3928H6.05195ZM15.7109 11.3928C16.7825 11.3928 17.6437 11.9261 17.6437 12.5966C17.6437 13.2671 16.7825 13.8014 15.7109 13.8014C14.6393 13.8014 13.7762 13.2671 13.7762 12.5966C13.7762 11.9261 14.6394 11.3928 15.711 11.3928H15.7109ZM3.53383 14.8783C4.20586 15.3628 4.95525 15.7819 5.76399 16.1247L5.34999 15.177C4.72681 15.0923 4.12014 14.9929 3.53383 14.8783ZM18.3896 14.9333C17.8705 15.0294 17.3367 15.114 16.7904 15.1871L16.4147 16.0483C17.1251 15.7338 17.7875 15.3593 18.3896 14.9333V14.9333ZM6.54262 15.3195L7.10232 16.6053C7.76402 16.8016 8.45512 16.9492 9.16829 17.0432L8.87291 15.4936C8.0846 15.456 7.30503 15.3982 6.54251 15.3196L6.54262 15.3195ZM15.5996 15.3274C15.0073 15.3874 14.4033 15.4349 13.7945 15.47L13.5137 16.9365C14.0466 16.8387 14.5644 16.7097 15.0655 16.5536L15.5997 15.3274L15.5996 15.3274ZM12.6876 15.5194C12.1563 15.5371 11.6222 15.5467 11.0885 15.5464C10.7174 15.5462 10.3463 15.5418 9.97609 15.5329L10.2861 17.1443C10.5225 17.1563 10.7608 17.1633 11.0009 17.1633C11.4692 17.1633 11.9307 17.1398 12.3849 17.0949L12.6875 15.5195L12.6876 15.5194Z" fill="black"/>
</svg>
