<svg width="15" height="12" viewBox="0 0 15 12" fill="none" xmlns="http://www.w3.org/2000/svg">
<path d="M1.49448 0L1.1211 1.2112H13.8799L13.5065 0H1.49448ZM0 1.68514V2.89634H5.12987V2.15909H9.87013V2.89634H15V1.68514H0ZM5.71429 2.63303V4.6868H9.28571V2.63303H5.71429ZM0.519481 3.37028V10.6454L1.42273 11.7433H13.5779L14.4805 10.6454V3.37028H9.87013V5.16075H5.12987V3.37028H0.519481ZM6.89935 5.42668L7.44805 6.22449H7.47403L8.02273 5.42668L8.53571 5.65839L7.75325 6.79586V7.84381L8.84091 7.32247L9.63312 6.1929L10.1396 6.4246L9.57792 7.22505L9.60065 7.25401L10.7045 7.25138V7.72532L9.13312 7.73059L8.01948 8.26509L9.13636 8.80223L10.711 8.81013L10.7045 9.28408L9.6039 9.27881L9.58117 9.30778L10.1429 10.1082L9.63636 10.3399L8.84416 9.21035L7.75325 8.68638V9.73433L8.53571 10.8718L8.02273 11.1035L7.47727 10.3083H7.44481L6.89935 11.1035L6.38636 10.8718L7.16883 9.73433V8.67585L6.08117 9.19719L5.28896 10.3268L4.78247 10.0951L5.34416 9.29461L5.32143 9.26565L4.21753 9.26828V8.79433L5.78896 8.78907L6.87662 8.26509L5.78896 7.74375L4.22078 7.73849V7.26454L5.32792 7.26717L5.3474 7.24084L4.78571 6.43777L5.29221 6.20606L6.08766 7.33827L7.16883 7.85697V6.79586L6.38636 5.65839L6.89935 5.42668Z" fill="black"/>
</svg>
