<svg width="18" height="14" viewBox="0 0 18 14" fill="none" xmlns="http://www.w3.org/2000/svg">
<path d="M0 0V13.5357H1.82781V1.34771H3.07152C2.71391 1.2355 2.46358 0.974453 2.46358 0.673855C2.46358 0.373257 2.71391 0.112211 3.07152 0H0ZM3.84238 0C4.2 0.112211 4.45033 0.373257 4.45033 0.673855C4.45033 0.974453 4.2 1.2355 3.84238 1.34771H5.28874C5.10993 1.15522 5.00662 0.923181 5.00662 0.673855C5.00662 0.424528 5.10993 0.192488 5.28874 0H3.84238ZM6.63576 0C6.12715 0 5.72185 0.298547 5.72185 0.673855C5.72185 1.04916 6.12715 1.34771 6.63576 1.34771C7.14437 1.34771 7.54967 1.04916 7.54967 0.673855C7.54967 0.298547 7.14437 0 6.63576 0ZM7.98278 0C8.16159 0.192488 8.2649 0.424528 8.2649 0.673855C8.2649 0.923181 8.16159 1.15522 7.98278 1.34771H9.42914C9.07152 1.2355 8.82119 0.974453 8.82119 0.673855C8.82119 0.373257 9.07152 0.112211 9.42914 0H7.98278ZM10.2 0C10.5576 0.112211 10.8079 0.373257 10.8079 0.673855C10.8079 0.974453 10.5576 1.2355 10.2 1.34771H11.4437V13.5357H13.2715V0H10.2ZM17.1099 0.956288L15.8384 1.89382L16.347 2.26767L17.6185 1.32896L17.1099 0.956288ZM13.9868 2.81261V4.16032H15.5325C15.7351 4.16032 15.7351 4.12516 15.7709 4.07243C15.8106 4.01676 15.8146 3.95523 15.8146 3.95523V3.0177C15.8146 3.0177 15.8106 2.95617 15.7709 2.90051C15.7351 2.84777 15.7351 2.81261 15.5364 2.81261H13.9868ZM16.7285 3.22278V3.75015H18V3.22278H16.7285ZM6.48477 3.61245C5.80927 3.6769 5.19338 4.25993 5.19338 5.01875C5.19338 5.43478 5.39603 5.80394 5.68212 6.0559L6.01987 6.35767L5.49139 6.43092C5.12185 6.48365 4.85166 6.63307 4.61722 6.86746C4.38278 7.10184 4.20795 7.43291 4.08079 7.81379C3.85033 8.49643 3.80265 9.34021 3.7947 10.0815H5.04238L5.38013 13.4478C6.24636 13.5884 7.16424 13.5796 7.99868 13.4478L8.29669 10.0815H9.47682C9.47682 9.33142 9.46093 8.47885 9.25828 7.78449C9.14305 7.40654 8.97219 7.07547 8.73775 6.84402C8.49934 6.60671 8.20927 6.46315 7.79205 6.41334L7.25166 6.35474L7.60133 6.03832C7.86358 5.78636 8.04636 5.42307 8.04636 5.01875C8.04636 4.21306 7.36689 3.61245 6.62384 3.61245H6.48477ZM16.347 4.70526L15.8384 5.08028L17.1099 6.01782L17.6185 5.6428L16.347 4.70526Z" fill="black"/>
</svg>
