<svg width="17" height="14" viewBox="0 0 17 14" fill="none" xmlns="http://www.w3.org/2000/svg">
<path d="M15.6923 3.25223H10.0782L12.8857 0.925746C13.0084 0.824047 13.0773 0.686113 13.0773 0.542289C13.0773 0.398465 13.0084 0.260532 12.8857 0.158833C12.763 0.0571339 12.5966 0 12.4231 0C12.2496 0 12.0832 0.0571339 11.9605 0.158833L8.5 3.02798L5.03952 0.158833C4.97877 0.108477 4.90665 0.0685319 4.82728 0.0412793C4.74791 0.0140267 4.66284 0 4.57692 0C4.49101 0 4.40594 0.0140267 4.32657 0.0412793C4.2472 0.0685319 4.17508 0.108477 4.11433 0.158833C3.99164 0.260532 3.92271 0.398465 3.92271 0.542289C3.92271 0.686113 3.99164 0.824047 4.11433 0.925746L6.92178 3.25223H1.30769C0.960871 3.25223 0.628254 3.36643 0.383014 3.56972C0.137774 3.773 0 4.04872 0 4.33621V12.466C0 12.7535 0.137774 13.0292 0.383014 13.2325C0.628254 13.4358 0.960871 13.55 1.30769 13.55H15.6923C16.0391 13.55 16.3717 13.4358 16.617 13.2325C16.8622 13.0292 17 12.7535 17 12.466V4.33621C17 4.04872 16.8622 3.773 16.617 3.56972C16.3717 3.36643 16.0391 3.25223 15.6923 3.25223ZM1.30769 4.33621H9.80769V12.466H1.30769V4.33621ZM15.6923 12.466H11.1154V4.33621H15.6923V12.466ZM14.3846 6.77515C14.3846 6.93594 14.3271 7.09312 14.2193 7.22682C14.1116 7.36051 13.9584 7.46472 13.7792 7.52625C13.6 7.58778 13.4028 7.60388 13.2125 7.57251C13.0223 7.54114 12.8475 7.46371 12.7103 7.35002C12.5732 7.23632 12.4798 7.09146 12.4419 6.93376C12.4041 6.77605 12.4235 6.61259 12.4977 6.46404C12.572 6.31548 12.6977 6.18851 12.859 6.09918C13.0202 6.00985 13.2099 5.96217 13.4038 5.96217C13.664 5.96217 13.9134 6.04782 14.0974 6.20029C14.2813 6.35275 14.3846 6.55953 14.3846 6.77515ZM14.3846 10.0271C14.3846 10.1879 14.3271 10.3451 14.2193 10.4787C14.1116 10.6124 13.9584 10.7166 13.7792 10.7782C13.6 10.8397 13.4028 10.8558 13.2125 10.8244C13.0223 10.7931 12.8475 10.7156 12.7103 10.6019C12.5732 10.4882 12.4798 10.3434 12.4419 10.1857C12.4041 10.028 12.4235 9.86452 12.4977 9.71597C12.572 9.56741 12.6977 9.44044 12.859 9.35111C13.0202 9.26178 13.2099 9.2141 13.4038 9.2141C13.664 9.2141 13.9134 9.29975 14.0974 9.45221C14.2813 9.60468 14.3846 9.81146 14.3846 10.0271Z" fill="black"/>
</svg>
