<svg width="19" height="13" viewBox="0 0 19 13" fill="none" xmlns="http://www.w3.org/2000/svg">
<path d="M9.49948 6.32302C11.2476 6.32302 12.666 5.28308 12.666 4.00106C12.666 3.01299 10.7826 1.01956 9.92167 0.157474C9.71058 -0.0524912 9.28838 -0.0524912 9.07728 0.157474C8.21639 1.01956 6.33298 3.01299 6.33298 4.00106C6.33298 5.28308 7.75131 6.32302 9.49948 6.32302ZM18.646 8.10402C18.2568 7.83971 17.6499 7.857 17.2409 8.10402L14.1931 9.92948C13.8204 10.1543 13.3553 10.2753 12.8738 10.2753H8.97173C8.68147 10.2753 8.44398 10.0974 8.44398 9.88007C8.44398 9.6627 8.68147 9.48485 8.97173 9.48485H11.5544C12.0788 9.48485 12.567 9.2156 12.6528 8.82778C12.7616 8.33375 12.2537 7.90393 11.6105 7.90393H6.33298C5.44241 7.90393 4.58152 8.13366 3.88885 8.55359L2.35508 9.48485H0.527749C0.237487 9.48485 0 9.6627 0 9.88007V12.2514C0 12.4688 0.237487 12.6467 0.527749 12.6467H12.2965C12.7748 12.6467 13.2399 12.5256 13.6159 12.3008L18.6031 9.31193C19.1045 9.01304 19.1441 8.43996 18.646 8.10402Z" fill="black"/>
</svg>
