<svg width="38" height="16" viewBox="0 0 38 16" fill="none" xmlns="http://www.w3.org/2000/svg">
<path d="M5.56489 14.784L1.86889 14.931C1.86889 14.707 1.84789 14.322 1.80589 13.776C1.77789 13.23 1.72889 12.572 1.65889 11.802C1.58889 11.032 1.49789 10.199 1.38589 9.303C1.28789 8.393 1.16889 7.462 1.02889 6.51C0.888893 5.558 0.734893 4.627 0.566893 3.717C0.398893 2.807 0.209893 1.974 -0.000107419 1.218L3.69589 0.251996C3.98989 1.176 4.24189 2.177 4.45189 3.255C4.66189 4.333 4.83689 5.425 4.97689 6.531C5.13089 7.637 5.24989 8.708 5.33389 9.744C5.41789 10.78 5.47389 11.732 5.50189 12.6C5.54389 13.468 5.56489 14.196 5.56489 14.784ZM10.5127 11.235C10.1487 10.843 9.81969 10.5 9.52569 10.206C9.24569 9.898 8.95869 9.611 8.66469 9.345C8.37069 9.065 8.03469 8.771 7.65669 8.463L10.2187 5.733C10.7927 6.153 11.3247 6.615 11.8147 7.119C12.3187 7.623 12.7597 8.113 13.1377 8.589L10.5127 11.235ZM18.1006 11.235C17.7366 10.843 17.4076 10.5 17.1136 10.206C16.8336 9.898 16.5466 9.611 16.2526 9.345C15.9586 9.065 15.6226 8.771 15.2446 8.463L17.8066 5.733C18.3806 6.153 18.9126 6.615 19.4026 7.119C19.9066 7.623 20.3476 8.113 20.7256 8.589L18.1006 11.235ZM30.1241 15.603L27.3101 14.427L33.9671 -4.58956e-06L36.8231 1.239L30.1241 15.603ZM35.6891 15.288C35.2131 14.798 34.8071 14.385 34.4711 14.049C34.1491 13.713 33.7431 13.349 33.2531 12.957L35.3321 10.731C35.8081 11.095 36.2561 11.494 36.6761 11.928C37.1101 12.348 37.4881 12.761 37.8101 13.167L35.6891 15.288ZM29.0321 4.62C28.5561 4.13 28.1501 3.717 27.8141 3.381C27.4921 3.045 27.0861 2.681 26.5961 2.289L28.6751 0.0629959C29.1511 0.426996 29.5991 0.825996 30.0191 1.26C30.4531 1.68 30.8311 2.093 31.1531 2.499L29.0321 4.62Z" fill="black"/>
</svg>
